<svg id="Capa_1" enable-background="new 0 0 512 512" height="512" viewBox="0 0 512 512" width="512" xmlns="http://www.w3.org/2000/svg"><g><path d="m347.583 36.365v109.065c0 33.265-17.74 62.367-44.257 78.407-5.625 3.4-10.158 8.149-13.289 13.701-3.121 5.542-4.842 11.888-4.842 18.461 0 13.155 6.871 25.363 18.131 32.162 26.517 16.04 44.257 45.143 44.257 78.407v109.065h-183.166v-109.064c0-33.265 17.74-62.367 44.257-78.407 5.625-3.4 10.158-8.149 13.289-13.701 3.121-5.542 4.842-11.888 4.842-18.461 0-13.155-6.871-25.363-18.131-32.162-26.517-16.04-44.257-45.143-44.257-78.407v-109.066z" fill="#d9ecfd"/><path d="m164.417 36.365v28.67h137.305c9.989 0 18.088 8.098 18.088 18.088v62.308c0 33.265-17.74 62.367-44.257 78.407-5.625 3.4-10.158 8.149-13.289 13.701-3.121 5.542-4.842 11.888-4.842 18.461 0 13.155 6.871 25.363 18.131 32.162 26.517 16.04 44.257 45.143 44.257 78.407v109.065h27.774v-109.065c0-33.265-17.74-62.367-44.257-78.407-11.26-6.799-18.131-19.007-18.131-32.162 0-6.573 1.72-12.918 4.842-18.461 3.132-5.553 7.665-10.302 13.289-13.701 26.517-16.04 44.257-45.143 44.257-78.407v-109.066z" fill="#b5dbfd"/><path d="m316.678 397.473v36.953c0 5.69-4.612 10.302-10.302 10.302h-100.752c-5.69 0-10.302-4.612-10.302-10.302v-37.603c0-19.731 24.231-55.847 54.59-61.809 4.4-.864 8.776 1.388 10.87 5.353 3.008 5.693 9.73 13.979 24.417 18.942 23.809 8.045 31.479 26.069 31.479 38.164z" fill="#fdd1a7"/><path d="m316.678 397.475v36.953c0 5.69-4.612 10.302-10.302 10.302h-18.894v-42.103c0-12.094-7.675-30.122-31.482-38.168-14.69-4.965-21.407-13.248-24.415-18.945-.412-.773-.907-1.483-1.483-2.122 6.13-4.018 12.805-6.995 19.81-8.375 4.399-.865 8.777 1.391 10.868 5.347 3.008 5.697 9.735 13.98 24.415 18.945 23.818 8.043 31.483 26.071 31.483 38.166z" fill="#ffbc8a"/><g><g><path d="m164.417 29.247v190.347c0 9.291-7.532 16.823-16.823 16.823-9.291 0-16.823-7.532-16.823-16.823v-190.347z" fill="#918291"/><path d="m130.771 29.247h33.646v35.793h-33.646z" fill="#7a6e79"/><path d="m164.417 292.407v190.347h-33.646v-190.347c0-9.292 7.531-16.823 16.823-16.823s16.823 7.53 16.823 16.823z" fill="#918291"/><path d="m164.417 292.407v5.573c-5.202 2.091-10.879 3.245-16.823 3.245s-11.62-1.154-16.823-3.245v-5.573c0-9.292 7.531-16.823 16.823-16.823s16.823 7.53 16.823 16.823z" fill="#7a6e79"/></g><g><path d="m381.229 29.247v190.347c0 9.291-7.532 16.823-16.823 16.823-9.291 0-16.823-7.532-16.823-16.823v-190.347z" fill="#918291"/><path d="m347.583 29.247h33.646v35.793h-33.646z" fill="#7a6e79"/><path d="m381.229 292.407v190.347h-33.646v-190.347c0-9.292 7.531-16.823 16.823-16.823s16.823 7.53 16.823 16.823z" fill="#918291"/><path d="m381.229 292.407v5.573c-5.202 2.091-10.879 3.245-16.823 3.245s-11.62-1.154-16.823-3.245v-5.573c0-9.292 7.531-16.823 16.823-16.823s16.823 7.53 16.823 16.823z" fill="#7a6e79"/></g></g><g><g><path d="m388.802 41.518h-265.604c-11.443 0-20.719-9.276-20.719-20.719v-10.44c0-5.721 4.638-10.359 10.36-10.359h286.323c5.721 0 10.359 4.638 10.359 10.359v10.44c0 11.443-9.276 20.719-20.719 20.719z" fill="#fcb44d"/><path d="m409.518 10.364v10.436c0 11.445-9.272 20.717-20.717 20.717h-30.71c11.445 0 20.717-9.272 20.717-20.717v-10.436c0-5.728-4.636-10.364-10.364-10.364h30.72c5.718 0 10.354 4.636 10.354 10.364z" fill="#fb9927"/></g><g><path d="m123.198 470.482h265.604c11.443 0 20.719 9.276 20.719 20.719v10.44c0 5.721-4.638 10.359-10.359 10.359h-286.323c-5.721 0-10.359-4.638-10.359-10.359v-10.44c-.001-11.443 9.275-20.719 20.718-20.719z" fill="#fcb44d"/><path d="m409.518 491.201v10.436c0 5.728-4.636 10.364-10.353 10.364h-30.72c5.728 0 10.364-4.636 10.364-10.364v-10.436c0-11.445-9.272-20.717-20.717-20.717h30.71c11.444 0 20.716 9.271 20.716 20.717z" fill="#fb9927"/></g></g><g><circle cx="147.594" cy="256" fill="#fcb44d" r="24.621"/><path d="m172.215 256c0 13.598-11.023 24.621-24.621 24.621-4.183 0-8.118-1.04-11.559-2.895 7.768-4.131 13.052-12.311 13.052-21.727s-5.285-17.596-13.052-21.727c3.441-1.854 7.376-2.895 11.559-2.895 13.598.002 24.621 11.025 24.621 24.623z" fill="#fb9927"/></g><g><circle cx="364.406" cy="256" fill="#fcb44d" r="24.621"/><path d="m389.027 256c0 13.598-11.023 24.621-24.621 24.621-4.183 0-8.118-1.04-11.559-2.895 7.768-4.131 13.052-12.311 13.052-21.727s-5.285-17.596-13.052-21.727c3.441-1.854 7.376-2.895 11.559-2.895 13.598.002 24.621 11.025 24.621 24.623z" fill="#fb9927"/></g><g><path d="m316.678 128.794v15.742c0 25.196-15.086 48.276-38.563 57.423-8.682 3.383-16.179 8.615-22.115 15.147-5.936-6.532-13.432-11.765-22.114-15.147-23.477-9.146-38.563-32.225-38.563-57.421v-22.076c0-2.634 1.009-5.157 2.813-7.076 5.478-5.831 19.203-17.131 43.307-17.131 30.271 0 24.637 17.821 65.488 20.252 5.463.326 9.747 4.814 9.747 10.287z" fill="#fdd1a7"/></g><g><path d="m316.678 128.793v15.741c0 25.198-15.082 48.274-38.56 57.422-8.684 3.389-16.184 8.623-22.118 15.154-4.141-4.564-9.055-8.489-14.598-11.6 2.39-1.35 4.893-2.534 7.51-3.554 23.478-9.148 38.57-32.224 38.57-57.422v-26.043c0-1.092-.165-2.132-.484-3.121 5.171 1.504 11.579 2.648 19.934 3.142 5.46.319 9.746 4.811 9.746 10.281z" fill="#ffbc8a"/></g><g><path d="m256 276.747c-4.267 0-7.726-3.459-7.726-7.726v-60.155c0-4.267 3.459-7.726 7.726-7.726 4.268 0 7.726 3.459 7.726 7.726v60.155c0 4.267-3.458 7.726-7.726 7.726z" fill="#ffbc8a"/></g><g><path d="m256 312.644c-4.267 0-7.726-3.459-7.726-7.726v-7.541c0-4.267 3.459-7.726 7.726-7.726 4.268 0 7.726 3.459 7.726 7.726v7.541c0 4.267-3.458 7.726-7.726 7.726z" fill="#ffbc8a"/></g></g></svg>